<svg width="32" height="42" viewBox="0 0 32 42" fill="none" xmlns="http://www.w3.org/2000/svg">
<path d="M16 0.875C11.8078 0.879946 7.7887 2.54749 4.82435 5.51184C1.86001 8.47618 0.192462 12.4953 0.187517 16.6875C0.182496 20.1134 1.30155 23.4463 3.37302 26.175C3.37302 26.175 3.80427 26.7428 3.8747 26.8248L16 41.125L28.1311 26.8176C28.1943 26.7414 28.627 26.175 28.627 26.175L28.6285 26.1707C30.6989 23.4432 31.8174 20.1118 31.8125 16.6875C31.8076 12.4953 30.14 8.47618 27.1757 5.51184C24.2113 2.54749 20.1922 0.879946 16 0.875ZM16 22.4375C14.8628 22.4375 13.7511 22.1003 12.8055 21.4685C11.8599 20.8366 11.1229 19.9386 10.6877 18.8879C10.2525 17.8373 10.1386 16.6811 10.3605 15.5657C10.5824 14.4503 11.13 13.4258 11.9342 12.6216C12.7383 11.8175 13.7629 11.2698 14.8782 11.048C15.9936 10.8261 17.1498 10.94 18.2004 11.3752C19.2511 11.8104 20.1491 12.5474 20.781 13.493C21.4128 14.4386 21.75 15.5503 21.75 16.6875C21.7481 18.2119 21.1417 19.6733 20.0638 20.7513C18.9859 21.8292 17.5244 22.4356 16 22.4375Z" fill="#1A1A1A"/>
</svg>
